<mxfile host="app.diagrams.net" modified="2024-01-09T10:38:44.331Z" agent="Mozilla/5.0 (Windows NT 10.0; Win64; x64) AppleWebKit/537.36 (KHTML, like Gecko) Chrome/120.0.0.0 Safari/537.36" etag="bXpR3Co0fXctbIg6dXfi" version="22.1.17" type="github">
  <diagram name="第 1 页" id="tbvnPpHZAJGAcW-suyOM">
    <mxGraphModel dx="1221" dy="618" grid="1" gridSize="10" guides="1" tooltips="1" connect="1" arrows="1" fold="1" page="1" pageScale="1" pageWidth="827" pageHeight="1169" math="0" shadow="0">
      <root>
        <mxCell id="0" />
        <mxCell id="1" parent="0" />
        <mxCell id="AuKflEJhTl0ckRkHEdlZ-4" value="Function" style="rounded=0;whiteSpace=wrap;html=1;" vertex="1" parent="1">
          <mxGeometry x="80" y="70" width="120" height="60" as="geometry" />
        </mxCell>
        <mxCell id="AuKflEJhTl0ckRkHEdlZ-5" value="Supplier" style="rounded=0;whiteSpace=wrap;html=1;" vertex="1" parent="1">
          <mxGeometry x="80" y="230" width="120" height="60" as="geometry" />
        </mxCell>
        <mxCell id="AuKflEJhTl0ckRkHEdlZ-6" value="Consumer" style="rounded=0;whiteSpace=wrap;html=1;" vertex="1" parent="1">
          <mxGeometry x="80" y="150" width="120" height="60" as="geometry" />
        </mxCell>
        <mxCell id="AuKflEJhTl0ckRkHEdlZ-7" value="Predicate" style="rounded=0;whiteSpace=wrap;html=1;" vertex="1" parent="1">
          <mxGeometry x="80" y="310" width="120" height="60" as="geometry" />
        </mxCell>
        <mxCell id="AuKflEJhTl0ckRkHEdlZ-9" value="&lt;div style=&quot;font-family: &amp;quot;JetBrains Mono&amp;quot;, monospace; font-size: 9.8pt;&quot;&gt;&lt;font color=&quot;#000000&quot;&gt;R apply(T t);&lt;/font&gt;&lt;/div&gt;" style="text;html=1;align=center;verticalAlign=middle;resizable=0;points=[];autosize=1;strokeColor=#666666;fillColor=#f5f5f5;fontColor=#333333;" vertex="1" parent="1">
          <mxGeometry x="210" y="85" width="110" height="30" as="geometry" />
        </mxCell>
        <mxCell id="AuKflEJhTl0ckRkHEdlZ-10" value="&lt;div style=&quot;font-family: &amp;quot;JetBrains Mono&amp;quot;, monospace; font-size: 9.8pt;&quot;&gt;&lt;font color=&quot;#000000&quot;&gt;void accept(T t);&lt;/font&gt;&lt;/div&gt;" style="text;whiteSpace=wrap;html=1;fillColor=#f5f5f5;fontColor=#333333;strokeColor=#666666;" vertex="1" parent="1">
          <mxGeometry x="210" y="165" width="120" height="30" as="geometry" />
        </mxCell>
        <mxCell id="AuKflEJhTl0ckRkHEdlZ-11" value="&lt;div style=&quot;font-family: &amp;quot;JetBrains Mono&amp;quot;, monospace; font-size: 9.8pt;&quot;&gt;T get();&lt;/div&gt;" style="text;whiteSpace=wrap;html=1;fillColor=#f5f5f5;fontColor=#333333;strokeColor=#666666;" vertex="1" parent="1">
          <mxGeometry x="210" y="245" width="60" height="30" as="geometry" />
        </mxCell>
        <mxCell id="AuKflEJhTl0ckRkHEdlZ-12" value="&lt;div style=&quot;font-family: &amp;quot;JetBrains Mono&amp;quot;, monospace; font-size: 9.8pt;&quot;&gt;boolean test(T t);&lt;/div&gt;" style="text;whiteSpace=wrap;html=1;fillColor=#f5f5f5;fontColor=#333333;strokeColor=#666666;" vertex="1" parent="1">
          <mxGeometry x="210" y="325" width="130" height="30" as="geometry" />
        </mxCell>
        <mxCell id="AuKflEJhTl0ckRkHEdlZ-13" value="入参，出参，例子：流里面的类型转化" style="text;html=1;strokeColor=none;fillColor=none;align=center;verticalAlign=middle;whiteSpace=wrap;rounded=0;" vertex="1" parent="1">
          <mxGeometry x="354" y="85" width="276" height="30" as="geometry" />
        </mxCell>
        <mxCell id="AuKflEJhTl0ckRkHEdlZ-14" value="有入参，没有出参。消费者" style="text;html=1;align=center;verticalAlign=middle;resizable=0;points=[];autosize=1;strokeColor=none;fillColor=none;" vertex="1" parent="1">
          <mxGeometry x="380" y="165" width="170" height="30" as="geometry" />
        </mxCell>
        <mxCell id="AuKflEJhTl0ckRkHEdlZ-15" value="有出参，没有入参。生产者" style="text;html=1;align=center;verticalAlign=middle;resizable=0;points=[];autosize=1;strokeColor=none;fillColor=none;" vertex="1" parent="1">
          <mxGeometry x="380" y="245" width="170" height="30" as="geometry" />
        </mxCell>
        <mxCell id="AuKflEJhTl0ckRkHEdlZ-16" value="断言。判断" style="text;html=1;align=center;verticalAlign=middle;resizable=0;points=[];autosize=1;strokeColor=none;fillColor=none;" vertex="1" parent="1">
          <mxGeometry x="390" y="325" width="80" height="30" as="geometry" />
        </mxCell>
      </root>
    </mxGraphModel>
  </diagram>
</mxfile>
